<?xml version="1.0" encoding="UTF-8" standalone="no"?>
<!-- Created with Inkscape (http://www.inkscape.org/) -->

<svg
   xmlns:dc="http://purl.org/dc/elements/1.1/"
   xmlns:cc="http://creativecommons.org/ns#"
   xmlns:rdf="http://www.w3.org/1999/02/22-rdf-syntax-ns#"
   xmlns:svg="http://www.w3.org/2000/svg"
   xmlns="http://www.w3.org/2000/svg"
   xmlns:sodipodi="http://sodipodi.sourceforge.net/DTD/sodipodi-0.dtd"
   xmlns:inkscape="http://www.inkscape.org/namespaces/inkscape"
   width="192"
   height="157"
   id="svg2"
   version="1.1"
   inkscape:version="0.47 r22583"
   sodipodi:docname="logo.svg"
   style="display:inline">
  <sodipodi:namedview
     id="base"
     pagecolor="#ffffff"
     bordercolor="#666666"
     borderopacity="1.0"
     inkscape:pageopacity="0.0"
     inkscape:pageshadow="2"
     inkscape:zoom="1.4578391"
     inkscape:cx="-28.702936"
     inkscape:cy="34.232648"
     inkscape:document-units="px"
     inkscape:current-layer="g3097"
     showgrid="false">
    <inkscape:grid
       snapvisiblegridlinesonly="true"
       enabled="true"
       visible="true"
       empspacing="5"
       id="grid3663"
       type="xygrid" />
    <sodipodi:guide
       id="guide3813"
       orientation="0,192"
       position="0,157" />
    <sodipodi:guide
       id="guide3815"
       orientation="157,0"
       position="192,157" />
    <sodipodi:guide
       id="guide3817"
       orientation="0,-192"
       position="192,0" />
    <sodipodi:guide
       id="guide3819"
       orientation="-157,0"
       position="0,0" />
    <sodipodi:guide
       id="guide3821"
       orientation="0,0"
       position="0,157" />
  </sodipodi:namedview>
  <defs
     id="defs4">
    <inkscape:perspective
       sodipodi:type="inkscape:persp3d"
       inkscape:vp_x="0 : 526.18109 : 1"
       inkscape:vp_y="0 : 1000 : 0"
       inkscape:vp_z="744.09448 : 526.18109 : 1"
       inkscape:persp3d-origin="372.04724 : 350.78739 : 1"
       id="perspective10" />
    <inkscape:perspective
       sodipodi:type="inkscape:persp3d"
       inkscape:vp_x="0 : 0.5 : 1"
       inkscape:vp_y="0 : 1000 : 0"
       inkscape:vp_z="1 : 0.5 : 1"
       inkscape:persp3d-origin="0.5 : 0.33333333 : 1"
       id="perspective3617" />
    <inkscape:perspective
       sodipodi:type="inkscape:persp3d"
       inkscape:vp_x="0 : 0.5 : 1"
       inkscape:vp_y="0 : 1000 : 0"
       inkscape:vp_z="1 : 0.5 : 1"
       inkscape:persp3d-origin="0.5 : 0.33333333 : 1"
       id="perspective3804" />
    <inkscape:perspective
       sodipodi:type="inkscape:persp3d"
       inkscape:vp_x="0 : 0.5 : 1"
       inkscape:vp_y="0 : 1000 : 0"
       inkscape:vp_z="1 : 0.5 : 1"
       inkscape:persp3d-origin="0.5 : 0.33333333 : 1"
       id="perspective4144" />
    <inkscape:perspective
       sodipodi:type="inkscape:persp3d"
       inkscape:vp_x="0 : 0.5 : 1"
       inkscape:vp_y="0 : 1000 : 0"
       inkscape:vp_z="1 : 0.5 : 1"
       inkscape:persp3d-origin="0.5 : 0.33333333 : 1"
       id="perspective4714" />
    <inkscape:perspective
       id="perspective5751"
       inkscape:persp3d-origin="0.5 : 0.33333333 : 1"
       inkscape:vp_z="1 : 0.5 : 1"
       inkscape:vp_y="0 : 1000 : 0"
       inkscape:vp_x="0 : 0.5 : 1"
       sodipodi:type="inkscape:persp3d" />
    <clipPath
       clipPathUnits="userSpaceOnUse"
       id="clipPath5665">
      <path
         d="M 0,0 160,0 160,240 0,240 0,0 z"
         id="path5667" />
    </clipPath>
    <clipPath
       clipPathUnits="userSpaceOnUse"
       id="clipPath5669">
      <path
         d="M 0,0 160,0 160,240 0,240 0,0 z"
         id="path5671" />
    </clipPath>
    <clipPath
       clipPathUnits="userSpaceOnUse"
       id="clipPath5673">
      <path
         d="M 0,0 160,0 160,240 0,240 0,0 z"
         id="path5675" />
    </clipPath>
    <inkscape:perspective
       sodipodi:type="inkscape:persp3d"
       inkscape:vp_x="0 : 0.5 : 1"
       inkscape:vp_y="0 : 1000 : 0"
       inkscape:vp_z="1 : 0.5 : 1"
       inkscape:persp3d-origin="0.5 : 0.33333333 : 1"
       id="perspective6922" />
    <clipPath
       clipPathUnits="userSpaceOnUse"
       id="clipPath5669-3">
      <path
         d="M 0,0 160,0 160,240 0,240 0,0 z"
         id="path5671-2" />
    </clipPath>
    <clipPath
       clipPathUnits="userSpaceOnUse"
       id="clipPath5673-5">
      <path
         d="M 0,0 160,0 160,240 0,240 0,0 z"
         id="path5675-4" />
    </clipPath>
    <inkscape:perspective
       sodipodi:type="inkscape:persp3d"
       inkscape:vp_x="0 : 0.5 : 1"
       inkscape:vp_y="0 : 1000 : 0"
       inkscape:vp_z="1 : 0.5 : 1"
       inkscape:persp3d-origin="0.5 : 0.33333333 : 1"
       id="perspective3537" />
    <inkscape:perspective
       sodipodi:type="inkscape:persp3d"
       inkscape:vp_x="0 : 0.5 : 1"
       inkscape:vp_y="0 : 1000 : 0"
       inkscape:vp_z="1 : 0.5 : 1"
       inkscape:persp3d-origin="0.5 : 0.33333333 : 1"
       id="perspective3083" />
    <inkscape:perspective
       sodipodi:type="inkscape:persp3d"
       inkscape:vp_x="0 : 0.5 : 1"
       inkscape:vp_y="0 : 1000 : 0"
       inkscape:vp_z="1 : 0.5 : 1"
       inkscape:persp3d-origin="0.5 : 0.33333333 : 1"
       id="perspective3325" />
    <inkscape:perspective
       sodipodi:type="inkscape:persp3d"
       inkscape:vp_x="0 : 0.5 : 1"
       inkscape:vp_y="0 : 1000 : 0"
       inkscape:vp_z="1 : 0.5 : 1"
       inkscape:persp3d-origin="0.5 : 0.33333333 : 1"
       id="perspective4199" />
    <inkscape:perspective
       id="perspective4938"
       inkscape:persp3d-origin="0.5 : 0.33333333 : 1"
       inkscape:vp_z="1 : 0.5 : 1"
       inkscape:vp_y="0 : 1000 : 0"
       inkscape:vp_x="0 : 0.5 : 1"
       sodipodi:type="inkscape:persp3d" />
    <inkscape:perspective
       id="perspective5165"
       inkscape:persp3d-origin="0.5 : 0.33333333 : 1"
       inkscape:vp_z="1 : 0.5 : 1"
       inkscape:vp_y="0 : 1000 : 0"
       inkscape:vp_x="0 : 0.5 : 1"
       sodipodi:type="inkscape:persp3d" />
    <inkscape:perspective
       id="perspective5337"
       inkscape:persp3d-origin="0.5 : 0.33333333 : 1"
       inkscape:vp_z="1 : 0.5 : 1"
       inkscape:vp_y="0 : 1000 : 0"
       inkscape:vp_x="0 : 0.5 : 1"
       sodipodi:type="inkscape:persp3d" />
    <inkscape:perspective
       id="perspective5492"
       inkscape:persp3d-origin="0.5 : 0.33333333 : 1"
       inkscape:vp_z="1 : 0.5 : 1"
       inkscape:vp_y="0 : 1000 : 0"
       inkscape:vp_x="0 : 0.5 : 1"
       sodipodi:type="inkscape:persp3d" />
    <inkscape:perspective
       id="perspective5981"
       inkscape:persp3d-origin="0.5 : 0.33333333 : 1"
       inkscape:vp_z="1 : 0.5 : 1"
       inkscape:vp_y="0 : 1000 : 0"
       inkscape:vp_x="0 : 0.5 : 1"
       sodipodi:type="inkscape:persp3d" />
    <inkscape:perspective
       id="perspective6010"
       inkscape:persp3d-origin="0.5 : 0.33333333 : 1"
       inkscape:vp_z="1 : 0.5 : 1"
       inkscape:vp_y="0 : 1000 : 0"
       inkscape:vp_x="0 : 0.5 : 1"
       sodipodi:type="inkscape:persp3d" />
    <inkscape:perspective
       id="perspective6137"
       inkscape:persp3d-origin="0.5 : 0.33333333 : 1"
       inkscape:vp_z="1 : 0.5 : 1"
       inkscape:vp_y="0 : 1000 : 0"
       inkscape:vp_x="0 : 0.5 : 1"
       sodipodi:type="inkscape:persp3d" />
  </defs>
  <metadata
     id="metadata7">
    <rdf:RDF>
      <cc:Work
         rdf:about="">
        <dc:format>image/svg+xml</dc:format>
        <dc:type
           rdf:resource="http://purl.org/dc/dcmitype/StillImage" />
        <dc:title />
      </cc:Work>
    </rdf:RDF>
  </metadata>
  <g
     transform="translate(0,-895.36218)"
     id="g3097"
     inkscape:groupmode="layer"
     inkscape:label="logo copy"
     style="display:inline">
    <g
       transform="matrix(0.73437919,0,0,0.73437919,-285.82711,-389.36981)"
       id="text4945-8-2"
       style="font-size:35.57035446px;font-style:normal;font-variant:normal;font-weight:500;font-stretch:normal;text-align:start;line-height:125%;letter-spacing:0px;word-spacing:0px;writing-mode:lr-tb;text-anchor:start;fill:#000000;fill-opacity:1;stroke:#000000;display:inline;font-family:DIN_OSP;-inkscape-font-specification:DIN_OSP Medium">
      <path
         inkscape:connector-curvature="0"
         id="path3094-8-6"
         d="m 499.84446,1916.3948 0,24.8993 3.55704,0 0,-10.6711 5.33555,0 0,-3.5571 -5.33555,0 0,-7.114 7.11407,0 0,-3.5571 -10.67111,0"
         style="fill:#000000;fill-opacity:1;stroke:#000000" />
      <path
         inkscape:connector-curvature="0"
         id="path3096-1-7"
         d="m 512.83598,1916.3948 3.55703,0 0,19.5637 c 0,0.498 0.16599,0.9248 0.49799,1.2805 0.3557,0.332 0.78254,0.498 1.28053,0.498 0.49798,0 0.91297,-0.166 1.24496,-0.498 0.3557,-0.3557 0.53355,-0.7825 0.53356,-1.2805 l 0,-19.5637 3.55703,0 0,19.5637 c -10e-6,1.4703 -0.52171,2.7271 -1.56509,3.7705 -1.04341,1.0434 -2.30023,1.5651 -3.77046,1.5651 -1.47025,0 -2.72706,-0.5217 -3.77046,-1.5651 -1.0434,-1.0434 -1.56509,-2.3002 -1.56509,-3.7705 l 0,-19.5637"
         style="fill:#000000;fill-opacity:1;stroke:#000000" />
      <path
         inkscape:connector-curvature="0"
         id="path3098-8-7"
         d="m 525.12498,1916.3948 10.6711,0 0,3.5571 -3.55703,0 0,21.3422 -3.55704,0 0,-21.3422 -3.55703,0 0,-3.5571"
         style="fill:#000000;fill-opacity:1;stroke:#000000" />
      <path
         inkscape:connector-curvature="0"
         id="path3100-0-5"
         d="m 537.42954,1916.3948 3.55704,0 0,19.5637 c 0,0.498 0.16599,0.9248 0.49799,1.2805 0.35569,0.332 0.78254,0.498 1.28053,0.498 0.49798,0 0.91296,-0.166 1.24496,-0.498 0.3557,-0.3557 0.53355,-0.7825 0.53356,-1.2805 l 0,-19.5637 3.55703,0 0,19.5637 c -10e-6,1.4703 -0.52171,2.7271 -1.56509,3.7705 -1.04341,1.0434 -2.30023,1.5651 -3.77046,1.5651 -1.47025,0 -2.72707,-0.5217 -3.77046,-1.5651 -1.0434,-1.0434 -1.5651,-2.3002 -1.5651,-3.7705 l 0,-19.5637"
         style="fill:#000000;fill-opacity:1;stroke:#000000" />
      <path
         inkscape:connector-curvature="0"
         id="path3102-5-3"
         d="m 551.53263,1916.4304 7.11407,0.036 c 0.97225,0 1.80222,0.3438 2.48993,1.0315 0.68768,0.6877 1.03153,1.5177 1.03154,2.4899 l 0,7.1141 c -1e-5,1.3517 -0.58099,2.3714 -1.74295,3.059 l 0,0 1.74295,11.1336 -3.52147,0 -1.77851,-10.6711 -1.81409,0 0,10.6711 -3.52147,0 0,-24.8637 m 3.52147,3.5215 0,7.1852 2.24093,0 c 0.37941,0 0.69954,-0.1304 0.9604,-0.3913 0.26084,-0.2846 0.39127,-0.6047 0.39127,-0.9604 l 0,-4.4463 c 0,-0.3794 -0.13043,-0.6995 -0.39127,-0.9604 -0.26086,-0.2845 -0.58099,-0.4268 -0.9604,-0.4268 l -2.24093,0"
         style="fill:#000000;fill-opacity:1;stroke:#000000" />
      <path
         inkscape:connector-curvature="0"
         id="path3104-0-2"
         d="m 565.21888,1941.2941 0,-24.8993 10.67111,0 0,3.5571 -7.11407,0 0,7.114 5.33555,0 0,3.5571 -5.33555,0 0,7.114 7.11407,0 0,3.5571 -10.67111,0"
         style="fill:#000000;fill-opacity:1;stroke:#000000" />
      <path
         inkscape:connector-curvature="0"
         id="path3106-6-0"
         d="m 582.99628,1916.3948 10.6711,0 0,3.5571 -3.55703,0 0,21.3422 -3.55704,0 0,-21.3422 -3.55703,0 0,-3.5571"
         style="fill:#000000;fill-opacity:1;stroke:#000000" />
      <path
         inkscape:connector-curvature="0"
         id="path3108-6-7"
         d="m 596.23567,1917.9599 c 1.04339,-1.0434 2.30021,-1.5651 3.77046,-1.5651 1.47023,0 2.72705,0.5217 3.77046,1.5651 1.04338,1.0434 1.56508,2.3003 1.56509,3.7705 l 0,14.2281 c -10e-6,1.4703 -0.52171,2.7271 -1.56509,3.7705 -1.04341,1.0434 -2.30023,1.5651 -3.77046,1.5651 -1.47025,0 -2.72707,-0.5217 -3.77046,-1.5651 -1.0434,-1.0434 -1.5651,-2.3002 -1.56509,-3.7705 l 0,-14.2281 c -10e-6,-1.4702 0.52169,-2.7271 1.56509,-3.7705 m 5.01542,2.5255 c -0.332,-0.3557 -0.74698,-0.5335 -1.24496,-0.5335 -0.49799,0 -0.92484,0.1778 -1.28053,0.5335 -0.332,0.332 -0.49799,0.747 -0.49799,1.245 l 0,5.051 0,4.1617 0,5.0154 c 0,0.498 0.16599,0.9248 0.49799,1.2805 0.35569,0.332 0.78254,0.498 1.28053,0.498 0.49798,0 0.91296,-0.166 1.24496,-0.498 0.3557,-0.3557 0.53355,-0.7825 0.53356,-1.2805 l 0,-5.0154 0,-4.1617 0,-5.051 c -1e-5,-0.498 -0.17786,-0.913 -0.53356,-1.245"
         style="fill:#000000;fill-opacity:1;stroke:#000000" />
      <path
         inkscape:connector-curvature="0"
         id="path3110-9-5"
         d="m 609.92193,1917.9599 c 1.04339,-1.0434 2.30021,-1.5651 3.77045,-1.5651 1.47024,0 2.72706,0.5217 3.77046,1.5651 1.04339,1.0434 1.56509,2.3003 1.5651,3.7705 l 0,14.2281 c -10e-6,1.4703 -0.52171,2.7271 -1.5651,3.7705 -1.0434,1.0434 -2.30022,1.5651 -3.77046,1.5651 -1.47024,0 -2.72706,-0.5217 -3.77045,-1.5651 -1.0434,-1.0434 -1.5651,-2.3002 -1.5651,-3.7705 l 0,-14.2281 c 0,-1.4702 0.5217,-2.7271 1.5651,-3.7705 m 5.01542,2.5255 c -0.332,-0.3557 -0.74699,-0.5335 -1.24497,-0.5335 -0.49799,0 -0.92483,0.1778 -1.28053,0.5335 -0.33199,0.332 -0.49799,0.747 -0.49798,1.245 l 0,5.051 0,4.1617 0,5.0154 c -10e-6,0.498 0.16599,0.9248 0.49798,1.2805 0.3557,0.332 0.78254,0.498 1.28053,0.498 0.49798,0 0.91297,-0.166 1.24497,-0.498 0.35569,-0.3557 0.53354,-0.7825 0.53355,-1.2805 l 0,-5.0154 0,-4.1617 0,-5.051 c -10e-6,-0.498 -0.17786,-0.913 -0.53355,-1.245"
         style="fill:#000000;fill-opacity:1;stroke:#000000" />
      <path
         inkscape:connector-curvature="0"
         id="path3112-3-1"
         d="m 622.2565,1941.2941 0,-24.8993 3.55704,0 0,21.3422 7.11407,0 0,3.5571 -10.67111,0"
         style="fill:#000000;fill-opacity:1;stroke:#000000" />
      <path
         inkscape:connector-curvature="0"
         id="path3114-5-4"
         d="m 634.5366,1934.18 0,1.7785 c 0,1.4703 0.5217,2.7271 1.5651,3.7705 1.04339,1.0434 2.30021,1.5651 3.77046,1.5651 1.47023,0 2.72705,-0.5217 3.77045,-1.5651 1.04339,-1.0434 1.56509,-2.3002 1.5651,-3.7705 l 0,-3.557 c -10e-6,-1.3517 -0.45057,-2.5374 -1.35167,-3.5571 -1.06712,-1.1856 -2.39508,-1.7785 -3.98388,-1.7785 -0.49799,0 -0.92484,-0.166 -1.28054,-0.498 -0.33199,-0.3556 -0.49799,-0.7825 -0.49798,-1.2805 l 0,-3.557 c -1e-5,-0.498 0.16599,-0.913 0.49798,-1.245 0.3557,-0.3557 0.78255,-0.5335 1.28054,-0.5335 0.49798,0 0.91296,0.1778 1.24496,0.5335 0.3557,0.332 0.53355,0.747 0.53355,1.245 l 0,1.7785 3.23691,0 0.32013,0 0,-1.7785 c -10e-6,-1.4702 -0.52171,-2.7271 -1.5651,-3.7705 -1.0434,-1.0434 -2.30022,-1.5651 -3.77045,-1.5651 -1.47025,0 -2.72707,0.5217 -3.77046,1.5651 -1.0434,1.0434 -1.5651,2.3003 -1.5651,3.7705 l 0,3.557 c 0,1.3517 0.45056,2.5374 1.35168,3.557 1.0671,1.1857 2.39506,1.7786 3.98388,1.7786 0.49798,0 0.91296,0.1778 1.24496,0.5335 0.3557,0.332 0.53355,0.747 0.53355,1.245 l 0,3.557 c 0,0.498 -0.17785,0.9248 -0.53355,1.2805 -0.332,0.332 -0.74698,0.498 -1.24496,0.498 -0.49799,0 -0.92484,-0.166 -1.28054,-0.498 -0.33199,-0.3557 -0.49799,-0.7825 -0.49798,-1.2805 l 0,-1.7785 -3.55704,0"
         style="fill:#000000;fill-opacity:1;stroke:#000000" />
    </g>
    <path
       d="m 8,996.53747 0,-19.32592 2.760823,0 0,16.56512 5.521669,0 0,2.7608 -8.282492,0"
       style="font-size:154px;font-style:normal;font-variant:normal;font-weight:500;font-stretch:normal;text-align:start;line-height:81.99999928%;letter-spacing:-0.75px;word-spacing:0px;writing-mode:lr-tb;text-anchor:start;fill:#999999;fill-opacity:1;stroke:none;display:inline;font-family:DIN_OSP;-inkscape-font-specification:DIN_OSP Medium"
       id="path4872-4"
       inkscape:connector-curvature="0" />
    <path
       d="m 20.792721,996.53747 -2.760835,0 0,-19.32592 2.760835,0 0,19.32592"
       style="font-size:154px;font-style:normal;font-variant:normal;font-weight:500;font-stretch:normal;text-align:start;line-height:81.99999928%;letter-spacing:-0.75px;word-spacing:0px;writing-mode:lr-tb;text-anchor:start;fill:#999999;fill-opacity:1;stroke:none;display:inline;font-family:DIN_OSP;-inkscape-font-specification:DIN_OSP Medium"
       id="path4874-1"
       inkscape:connector-curvature="0" />
    <path
       d="m 23.368613,977.23939 5.521669,0 c 0.754631,0 1.398814,0.26636 1.932589,0.80058 0.533757,0.53391 0.800634,1.18724 0.800634,1.96029 l 0,5.85265 c 0,0.27545 -0.10133,0.51577 -0.303695,0.71803 -0.202462,0.20346 -0.441734,0.30345 -0.717817,0.30345 l 0,0.0295 c 0.276087,0 0.515346,0.10187 0.717817,0.30386 0.202464,0.20346 0.303695,0.44164 0.303695,0.71789 l 0,5.88063 c 0,0.7544 -0.266869,1.3988 -0.800634,1.9323 -0.533775,0.5336 -1.177958,0.8009 -1.932589,0.8009 l -5.521669,0 0,-19.29838 m 2.73322,2.73333 0,5.54931 1.739349,0 c 0.294463,0 0.542936,-0.10186 0.745405,-0.30358 0.202463,-0.20347 0.303695,-0.4509 0.303695,-0.74551 l 0,-3.45126 c 0,-0.29327 -0.10133,-0.54284 -0.303695,-0.74523 -0.202463,-0.20347 -0.450937,-0.30373 -0.745405,-0.30373 l -1.739349,0 m 0,8.28229 0,5.54956 1.739349,0 c 0.294463,0 0.542936,-0.1019 0.745405,-0.3038 0.202463,-0.2035 0.303695,-0.4511 0.303695,-0.7455 l 0,-3.45104 c 0,-0.29327 -0.10133,-0.54284 -0.303695,-0.7455 -0.202463,-0.20347 -0.450937,-0.30372 -0.745405,-0.30372 l -1.739349,0"
       style="font-size:154px;font-style:normal;font-variant:normal;font-weight:500;font-stretch:normal;text-align:start;line-height:81.99999928%;letter-spacing:-0.75px;word-spacing:0px;writing-mode:lr-tb;text-anchor:start;fill:#999999;fill-opacity:1;stroke:none;display:inline;font-family:DIN_OSP;-inkscape-font-specification:DIN_OSP Medium"
       id="path4876-9"
       inkscape:connector-curvature="0" />
    <path
       d="m 34.126512,977.23939 5.521674,0.0299 c 0.754609,0 1.398813,0.26636 1.932571,0.80027 0.533753,0.53391 0.80063,1.17797 0.800652,1.93276 l 0,5.52178 c -2.2e-5,1.04922 -0.450962,1.84056 -1.352818,2.37416 l 0,0 1.352818,8.64161 -2.733223,0 -1.380431,-8.2828 -1.408016,0 0,8.2828 -2.733227,0 0,-19.29842 m 2.733227,2.73334 0,5.57678 1.739326,0 c 0.294491,0 0.542957,-0.10186 0.745426,-0.30372 0.202433,-0.22156 0.303673,-0.46939 0.303695,-0.74523 l 0,-3.451 c -2.2e-5,-0.29327 -0.101331,-0.54297 -0.303695,-0.7455 -0.202464,-0.22151 -0.450938,-0.33133 -0.745426,-0.33133 l -1.739326,0"
       style="font-size:154px;font-style:normal;font-variant:normal;font-weight:500;font-stretch:normal;text-align:start;line-height:81.99999928%;letter-spacing:-0.75px;word-spacing:0px;writing-mode:lr-tb;text-anchor:start;fill:#999999;fill-opacity:1;stroke:none;display:inline;font-family:DIN_OSP;-inkscape-font-specification:DIN_OSP Medium"
       id="path4878-7"
       inkscape:connector-curvature="0" />
    <path
       d="m 44.614798,996.53747 0,-19.32592 8.282483,0 0,2.76087 -5.521649,0 0,5.52168 4.141244,0 0,2.76085 -4.141244,0 0,5.52172 5.521649,0 0,2.7608 -8.282483,0"
       style="font-size:154px;font-style:normal;font-variant:normal;font-weight:500;font-stretch:normal;text-align:start;line-height:81.99999928%;letter-spacing:-0.75px;word-spacing:0px;writing-mode:lr-tb;text-anchor:start;fill:#999999;fill-opacity:1;stroke:none;display:inline;font-family:DIN_OSP;-inkscape-font-specification:DIN_OSP Medium"
       id="path4880-7"
       inkscape:connector-curvature="0" />
    <path
       d="m 60.601158,978.42634 c 0.809836,-0.80985 1.785325,-1.21479 2.926467,-1.21479 1.141143,0 2.116629,0.40494 2.926489,1.21479 0.809835,0.81014 1.214751,1.78521 1.214751,2.92662 l -2.760811,0 c -2e-5,-0.38669 -0.138057,-0.70864 -0.414122,-0.96639 -0.257681,-0.27528 -0.579799,-0.41415 -0.966307,-0.41415 -0.386508,0 -0.717817,0.13766 -0.993897,0.41415 -0.25768,0.25748 -0.38651,0.5797 -0.38651,0.96639 l 0,11.04311 c 0,0.3867 0.12878,0.718 0.38651,0.9943 0.276086,0.2573 0.607389,0.3863 0.993897,0.3863 0.386508,0 0.708612,-0.1287 0.966307,-0.3863 0.276056,-0.2753 0.414102,-0.6076 0.414122,-0.9943 l 0,-4.14112 -1.380429,0 0,-2.76085 4.14124,0 0,6.90197 c 0,1.1412 -0.404916,2.1168 -1.214751,2.9266 -0.80986,0.8099 -1.785346,1.2148 -2.926489,1.2148 -1.141142,0 -2.116631,-0.4049 -2.926467,-1.2148 -0.809859,-0.8098 -1.214776,-1.7854 -1.214776,-2.9266 l 0,-11.04311 c 0,-1.14141 0.404917,-2.11648 1.214776,-2.92662"
       style="font-size:154px;font-style:normal;font-variant:normal;font-weight:500;font-stretch:normal;text-align:start;line-height:81.99999928%;letter-spacing:-0.75px;word-spacing:0px;writing-mode:lr-tb;text-anchor:start;fill:#999999;fill-opacity:1;stroke:none;display:inline;font-family:DIN_OSP;-inkscape-font-specification:DIN_OSP Medium"
       id="path4882-7"
       inkscape:connector-curvature="0" />
    <path
       d="m 70.040297,977.23939 5.521662,0.0299 c 0.75464,0 1.398837,0.26636 1.932595,0.80027 0.53376,0.53391 0.800628,1.17797 0.800628,1.93276 l 0,5.52178 c 0,1.04922 -0.450938,1.84056 -1.352792,2.37416 l 0,0 1.352792,8.64161 -2.733223,0 -1.38039,-8.2828 -1.408027,0 0,8.2828 -2.733245,0 0,-19.29842 m 2.733245,2.73334 0,5.57678 1.739329,0 c 0.294462,0 0.542951,-0.10186 0.745405,-0.30372 0.202433,-0.22156 0.303683,-0.46939 0.303683,-0.74523 l 0,-3.451 c 0,-0.29327 -0.101304,-0.54297 -0.303683,-0.7455 -0.202462,-0.22151 -0.450938,-0.33133 -0.745405,-0.33133 l -1.739329,0"
       style="font-size:154px;font-style:normal;font-variant:normal;font-weight:500;font-stretch:normal;text-align:start;line-height:81.99999928%;letter-spacing:-0.75px;word-spacing:0px;writing-mode:lr-tb;text-anchor:start;fill:#999999;fill-opacity:1;stroke:none;display:inline;font-family:DIN_OSP;-inkscape-font-specification:DIN_OSP Medium"
       id="path4884-8"
       inkscape:connector-curvature="0" />
    <path
       d="m 83.399867,977.21155 2.73322,0 4.141234,19.32592 -2.73322,0 -0.828249,-4.1414 -3.892769,-0.029 -0.828266,4.169 -2.733222,0 4.141272,-19.32602 m 1.352791,5.52167 -1.380411,6.92987 2.788425,0 -1.380393,-6.92987 c 0,0 -0.0087,0 -0.02753,0"
       style="font-size:154px;font-style:normal;font-variant:normal;font-weight:500;font-stretch:normal;text-align:start;line-height:81.99999928%;letter-spacing:-0.75px;word-spacing:0px;writing-mode:lr-tb;text-anchor:start;fill:#999999;fill-opacity:1;stroke:none;display:inline;font-family:DIN_OSP;-inkscape-font-specification:DIN_OSP Medium"
       id="path4886-4"
       inkscape:connector-curvature="0" />
    <path
       d="m 91.502169,977.23939 5.521645,0 c 0.754638,0 1.398839,0.26636 1.932595,0.80058 0.533758,0.53391 0.800625,1.18724 0.800664,1.96029 l 0,5.52145 c -3.9e-5,0.75475 -0.266898,1.39879 -0.800664,1.93265 -0.533756,0.53373 -1.177957,0.80059 -1.932595,0.80059 l -2.788422,0 0,8.28252 -2.733223,0 0,-19.29808 m 2.733223,2.73303 0,5.54929 1.739332,0 c 0.294462,0 0.54295,-0.10186 0.745426,-0.30385 0.202462,-0.20347 0.303664,-0.45063 0.303664,-0.7451 l 0,-3.45113 c 0,-0.29327 -0.101129,-0.54284 -0.303664,-0.7455 -0.202464,-0.20346 -0.450955,-0.30371 -0.745426,-0.30371 l -1.739332,0"
       style="font-size:154px;font-style:normal;font-variant:normal;font-weight:500;font-stretch:normal;text-align:start;line-height:81.99999928%;letter-spacing:-0.75px;word-spacing:0px;writing-mode:lr-tb;text-anchor:start;fill:#999999;fill-opacity:1;stroke:none;display:inline;font-family:DIN_OSP;-inkscape-font-specification:DIN_OSP Medium"
       id="path4888-0"
       inkscape:connector-curvature="0" />
    <path
       d="m 101.72083,977.21155 2.76084,0 0,8.28255 2.76084,0 0,-8.28255 2.76082,0 0,19.32592 -2.76082,0 0,-8.28252 -2.76084,0 0,8.28252 -2.76084,0 0,-19.32592"
       style="font-size:154px;font-style:normal;font-variant:normal;font-weight:500;font-stretch:normal;text-align:start;line-height:81.99999928%;letter-spacing:-0.75px;word-spacing:0px;writing-mode:lr-tb;text-anchor:start;fill:#999999;fill-opacity:1;stroke:none;display:inline;font-family:DIN_OSP;-inkscape-font-specification:DIN_OSP Medium"
       id="path4890-4"
       inkscape:connector-curvature="0" />
    <path
       d="m 115.37632,996.53747 -2.76085,0 0,-19.32592 2.76085,0 0,19.32592"
       style="font-size:154px;font-style:normal;font-variant:normal;font-weight:500;font-stretch:normal;text-align:start;line-height:81.99999928%;letter-spacing:-0.75px;word-spacing:0px;writing-mode:lr-tb;text-anchor:start;fill:#999999;fill-opacity:1;stroke:none;display:inline;font-family:DIN_OSP;-inkscape-font-specification:DIN_OSP Medium"
       id="path4892-5"
       inkscape:connector-curvature="0" />
    <path
       d="m 119.00132,978.42634 c 0.80984,-0.80985 1.78536,-1.21479 2.92651,-1.21479 1.14112,0 2.11662,0.40494 2.92648,1.21479 0.80984,0.81014 1.21475,1.78521 1.21475,2.92662 l 0,1.38029 -2.76084,0 0,-1.38029 c 0,-0.38669 -0.13806,-0.70864 -0.41412,-0.96639 -0.25768,-0.27528 -0.57977,-0.41415 -0.96627,-0.41415 -0.38655,0 -0.71783,0.13766 -0.99391,0.41415 -0.25768,0.25748 -0.38652,0.5797 -0.38652,0.96639 l 0,11.04311 c 0,0.3867 0.12878,0.718 0.38652,0.9943 0.27608,0.2573 0.60736,0.3863 0.99391,0.3863 0.3865,0 0.70859,-0.1287 0.96627,-0.3863 0.27608,-0.2753 0.41412,-0.6076 0.41412,-0.9943 l 0,-1.3803 2.76084,0 0,1.3803 c 0,1.1412 -0.40491,2.1168 -1.21475,2.9266 -0.80986,0.8099 -1.78536,1.2148 -2.92648,1.2148 -1.14115,0 -2.11667,-0.4049 -2.92651,-1.2148 -0.80984,-0.8098 -1.21475,-1.7854 -1.21475,-2.9266 l 0,-11.04311 c 0,-1.14141 0.40491,-2.11648 1.21475,-2.92662"
       style="font-size:154px;font-style:normal;font-variant:normal;font-weight:500;font-stretch:normal;text-align:start;line-height:81.99999928%;letter-spacing:-0.75px;word-spacing:0px;writing-mode:lr-tb;text-anchor:start;fill:#999999;fill-opacity:1;stroke:none;display:inline;font-family:DIN_OSP;-inkscape-font-specification:DIN_OSP Medium"
       id="path4894-0"
       inkscape:connector-curvature="0" />
    <path
       d="m 127.51088,991.01577 0,1.3803 c 0,1.1412 0.40491,2.1168 1.21477,2.9266 0.80984,0.8099 1.78534,1.2148 2.92648,1.2148 1.14112,0 2.1166,-0.4049 2.92646,-1.2148 0.80984,-0.8098 1.21479,-1.7854 1.21479,-2.9266 l 0,-2.76083 c 0,-1.04895 -0.34973,-1.96924 -1.04913,-2.76085 -0.82825,-0.92001 -1.85899,-1.38029 -3.09212,-1.38029 -0.38652,0 -0.71782,-0.12867 -0.99391,-0.38669 -0.25768,-0.27531 -0.38652,-0.60718 -0.38652,-0.9936 l 0,-2.76085 c 0,-0.38669 0.12878,-0.70864 0.38652,-0.96639 0.27609,-0.27528 0.60739,-0.41415 0.99391,-0.41415 0.3865,0 0.70859,0.13766 0.96628,0.41415 0.27609,0.25748 0.41413,0.5797 0.41413,0.96639 l 0,1.38029 2.51235,0 0.2485,0 0,-1.38029 c 0,-1.14141 -0.40495,-2.11648 -1.21479,-2.92662 -0.80986,-0.80985 -1.78534,-1.21479 -2.92646,-1.21479 -1.14114,0 -2.11665,0.40494 -2.92649,1.21479 -0.80985,0.81014 -1.21476,1.78521 -1.21476,2.92662 l 0,2.76085 c 0,1.04896 0.3497,1.96924 1.0491,2.76058 0.82825,0.92056 1.85897,1.38056 3.09215,1.38056 0.3865,0 0.70859,0.13766 0.96628,0.4143 0.27609,0.25735 0.41413,0.57971 0.41413,0.96599 l 0,2.76083 c 0,0.3867 -0.13806,0.718 -0.41413,0.9943 -0.25768,0.2573 -0.57978,0.3863 -0.96628,0.3863 -0.38652,0 -0.71783,-0.1287 -0.99391,-0.3863 -0.25768,-0.2753 -0.38652,-0.6076 -0.38652,-0.9943 l 0,-1.3803 -2.76082,0"
       style="font-size:154px;font-style:normal;font-variant:normal;font-weight:500;font-stretch:normal;text-align:start;line-height:81.99999928%;letter-spacing:-0.75px;word-spacing:0px;writing-mode:lr-tb;text-anchor:start;fill:#999999;fill-opacity:1;stroke:none;display:inline;font-family:DIN_OSP;-inkscape-font-specification:DIN_OSP Medium"
       id="path4896-4"
       inkscape:connector-curvature="0" />
    <path
       d="m 12.831455,1013.3723 -2.070632,-6.2118 0,10.3529 -2.760823,0 0,-19.32559 2.760823,0 3.451061,10.35299 3.451038,-10.35299 2.760813,0 0,19.32559 -2.760813,0 0,-10.3529 -2.070632,6.2118 -2.760835,0"
       style="font-size:156.3493042px;font-style:normal;font-variant:normal;font-weight:500;font-stretch:normal;text-align:start;line-height:74.00000095%;letter-spacing:-0.22px;word-spacing:0px;writing-mode:lr-tb;text-anchor:start;fill:#999999;fill-opacity:1;stroke:none;display:inline;font-family:DIN_OSP;-inkscape-font-specification:DIN_OSP Medium"
       id="path4898-1"
       inkscape:connector-curvature="0" />
    <path
       d="m 22.359698,1017.5134 0,-19.32559 8.282483,0 0,2.76049 -5.521649,0 0,5.522 4.141243,0 0,2.7609 -4.141243,0 0,5.5214 5.521649,0 0,2.7608 -8.282483,0"
       style="font-size:156.3493042px;font-style:normal;font-variant:normal;font-weight:500;font-stretch:normal;text-align:start;line-height:74.00000095%;letter-spacing:-0.22px;word-spacing:0px;writing-mode:lr-tb;text-anchor:start;fill:#999999;fill-opacity:1;stroke:none;display:inline;font-family:DIN_OSP;-inkscape-font-specification:DIN_OSP Medium"
       id="path4900-6"
       inkscape:connector-curvature="0" />
    <path
       d="m 32.199024,1017.5134 0,-19.32559 8.282482,0 0,2.76049 -5.521648,0 0,5.522 4.141243,0 0,2.7609 -4.141243,0 0,5.5214 5.521648,0 0,2.7608 -8.282482,0"
       style="font-size:156.3493042px;font-style:normal;font-variant:normal;font-weight:500;font-stretch:normal;text-align:start;line-height:74.00000095%;letter-spacing:-0.22px;word-spacing:0px;writing-mode:lr-tb;text-anchor:start;fill:#999999;fill-opacity:1;stroke:none;display:inline;font-family:DIN_OSP;-inkscape-font-specification:DIN_OSP Medium"
       id="path4902-5"
       inkscape:connector-curvature="0" />
    <path
       d="m 41.165293,998.18781 8.282507,0 0,2.76049 -2.760835,0 0,16.5651 -2.760838,0 0,-16.5651 -2.760834,0 0,-2.76049"
       style="font-size:156.3493042px;font-style:normal;font-variant:normal;font-weight:500;font-stretch:normal;text-align:start;line-height:74.00000095%;letter-spacing:-0.22px;word-spacing:0px;writing-mode:lr-tb;text-anchor:start;fill:#999999;fill-opacity:1;stroke:none;display:inline;font-family:DIN_OSP;-inkscape-font-specification:DIN_OSP Medium"
       id="path4904-9"
       inkscape:connector-curvature="0" />
    <path
       d="m 53.161309,1017.5134 -2.760837,0 0,-19.32559 2.760837,0 0,19.32559"
       style="font-size:156.3493042px;font-style:normal;font-variant:normal;font-weight:500;font-stretch:normal;text-align:start;line-height:74.00000095%;letter-spacing:-0.22px;word-spacing:0px;writing-mode:lr-tb;text-anchor:start;fill:#999999;fill-opacity:1;stroke:none;display:inline;font-family:DIN_OSP;-inkscape-font-specification:DIN_OSP Medium"
       id="path4906-2"
       inkscape:connector-curvature="0" />
    <path
       d="m 55.517029,998.13631 2.760835,0 2.760838,9.66309 0,-9.66309 2.760834,0 0,19.32609 -2.760834,0 -2.760838,-9.663 0,9.663 -2.760835,0 0,-19.32609"
       style="font-size:156.3493042px;font-style:normal;font-variant:normal;font-weight:500;font-stretch:normal;text-align:start;line-height:74.00000095%;letter-spacing:-0.22px;word-spacing:0px;writing-mode:lr-tb;text-anchor:start;fill:#999999;fill-opacity:1;stroke:none;display:inline;font-family:DIN_OSP;-inkscape-font-specification:DIN_OSP Medium"
       id="path4908-2"
       inkscape:connector-curvature="0" />
    <path
       d="m 67.060378,999.60731 c 0.809813,-0.8099 1.785323,-1.2149 2.926465,-1.2149 1.141143,0 2.116632,0.405 2.92649,1.2149 0.809836,0.80989 1.214748,1.78549 1.214766,2.92629 l -2.760826,0 c -2.1e-5,-0.3863 -0.138058,-0.7087 -0.414123,-0.966 -0.25771,-0.2753 -0.579795,-0.4142 -0.966307,-0.4142 -0.386507,0 -0.717813,0.1377 -0.993897,0.4142 -0.257679,0.2573 -0.386508,0.5797 -0.386508,0.966 l 0,11.0435 c 0,0.3863 0.128781,0.7179 0.386508,0.9939 0.276087,0.2573 0.60739,0.3864 0.993897,0.3864 0.386512,0 0.708611,-0.1287 0.966307,-0.3864 0.276057,-0.2753 0.414102,-0.6076 0.414123,-0.9939 l 0,-4.1415 -1.38043,0 0,-2.7609 4.141256,0 0,6.9024 c -1.8e-5,1.1412 -0.40493,2.1164 -1.214766,2.9264 -0.809858,0.8098 -1.785347,1.215 -2.92649,1.215 -1.141142,0 -2.116652,-0.4052 -2.926465,-1.215 -0.809857,-0.81 -1.214774,-1.7852 -1.214774,-2.9264 l 0,-11.0435 c 0,-1.1408 0.404917,-2.1164 1.214774,-2.92629"
       style="font-size:156.3493042px;font-style:normal;font-variant:normal;font-weight:500;font-stretch:normal;text-align:start;line-height:74.00000095%;letter-spacing:-0.22px;word-spacing:0px;writing-mode:lr-tb;text-anchor:start;fill:#999999;fill-opacity:1;stroke:none;display:inline;font-family:DIN_OSP;-inkscape-font-specification:DIN_OSP Medium"
       id="path4910-3"
       inkscape:connector-curvature="0" />
    <path
       d="m 82.421111,999.40251 c 0.80984,-0.8098 1.78534,-1.2147 2.926482,-1.2147 1.141144,0 2.116644,0.4049 2.926506,1.2147 0.809818,0.80989 1.214747,1.78519 1.214747,2.92639 0,0.6073 -0.119707,1.178 -0.358903,1.7119 l -4.831458,10.7118 5.190361,0 0,2.7608 -8.282504,0 0,-2.7608 5.190381,-11.3469 c 0.220868,-0.5335 0.331282,-0.8928 0.331282,-1.0768 0,-0.3863 -0.138057,-0.7084 -0.414122,-0.9664 -0.257681,-0.2753 -0.579767,-0.4142 -0.96629,-0.4142 -0.386523,0 -0.717805,0.1377 -0.993887,0.4142 -0.257681,0.2575 -0.386542,0.5801 -0.386542,0.9664 l -2.760822,0 c 0,-1.1412 0.40491,-2.1165 1.214769,-2.92639"
       style="font-size:154px;font-style:normal;font-variant:normal;font-weight:500;font-stretch:normal;text-align:start;line-height:81.99999928%;letter-spacing:-0.75px;word-spacing:0px;writing-mode:lr-tb;text-anchor:start;fill:#999999;fill-opacity:1;stroke:none;display:inline;font-family:DIN_OSP;-inkscape-font-specification:DIN_OSP Medium"
       id="path4912-4"
       inkscape:connector-curvature="0" />
    <path
       d="m 92.424103,999.40251 c 0.809823,-0.8098 1.785323,-1.2147 2.926467,-1.2147 1.141142,0 2.116625,0.4049 2.926482,1.2147 0.80984,0.80989 1.214751,1.78519 1.214751,2.92639 l 0,11.0434 c 0,1.1409 -0.404911,2.1166 -1.214751,2.9264 -0.809857,0.8098 -1.78534,1.2147 -2.926482,1.2147 -1.141144,0 -2.116644,-0.4049 -2.926467,-1.2147 -0.809857,-0.8098 -1.214786,-1.7855 -1.214786,-2.9264 l 0,-11.0434 c 0,-1.1412 0.404929,-2.1165 1.214786,-2.92639 m 3.892772,1.95999 c -0.257679,-0.2753 -0.579801,-0.4142 -0.966305,-0.4142 -0.386503,0 -0.717827,0.1377 -0.993906,0.4142 -0.257681,0.2575 -0.386506,0.5801 -0.386506,0.9664 l 0,11.0434 c 0,0.3867 0.128781,0.7178 0.386506,0.994 0.276085,0.2574 0.607403,0.3863 0.993906,0.3863 0.386504,0 0.708611,-0.1287 0.966305,-0.3863 0.276057,-0.2754 0.414106,-0.6073 0.414124,-0.994 l 0,-11.0434 c -1.8e-5,-0.3863 -0.138059,-0.7084 -0.414124,-0.9664"
       style="font-size:154px;font-style:normal;font-variant:normal;font-weight:500;font-stretch:normal;text-align:start;line-height:81.99999928%;letter-spacing:-0.75px;word-spacing:0px;writing-mode:lr-tb;text-anchor:start;fill:#999999;fill-opacity:1;stroke:none;display:inline;font-family:DIN_OSP;-inkscape-font-specification:DIN_OSP Medium"
       id="path4914-5"
       inkscape:connector-curvature="0" />
    <path
       d="m 104.08797,998.18781 2.76082,0 0,19.32559 -2.76082,0 0,-16.5651 -2.76084,2.7612 0,-2.7612 2.76084,-2.76049"
       style="font-size:154px;font-style:normal;font-variant:normal;font-weight:500;font-stretch:normal;text-align:start;line-height:81.99999928%;letter-spacing:-0.75px;word-spacing:0px;writing-mode:lr-tb;text-anchor:start;fill:#999999;fill-opacity:1;stroke:none;display:inline;font-family:DIN_OSP;-inkscape-font-specification:DIN_OSP Medium"
       id="path4916-8"
       inkscape:connector-curvature="0" />
    <path
       d="m 110.33018,999.45371 c 0.80984,-0.8098 1.78534,-1.2147 2.92649,-1.2147 1.14114,0 2.11662,0.4049 2.92648,1.2147 0.80984,0.80989 1.21475,1.78519 1.21475,2.92639 l 0,2.7609 c 0,1.0489 -0.34971,1.9692 -1.04911,2.7608 0.6994,0.7916 1.04911,1.7119 1.04911,2.7609 l 0,2.7608 c 0,1.1412 -0.40491,2.1166 -1.21475,2.9264 -0.80986,0.8098 -1.78534,1.2148 -2.92648,1.2148 -1.14115,0 -2.11665,-0.405 -2.92649,-1.2148 -0.80984,-0.8098 -1.21479,-1.7852 -1.21477,-2.9264 l 0,-1.3803 2.76084,0 0,1.3803 c -2e-5,0.3867 0.12879,0.7178 0.38651,0.994 0.27608,0.2574 0.60736,0.3863 0.99391,0.3863 0.3865,0 0.70861,-0.1287 0.96628,-0.3863 0.27609,-0.2754 0.41413,-0.6073 0.41413,-0.994 l 0,-2.7608 c 0,-0.3863 -0.13809,-0.7087 -0.41413,-0.9664 -0.25768,-0.2753 -0.57978,-0.4139 -0.96628,-0.4139 l 0,-2.7611 c 0.3865,0 0.70861,-0.1287 0.96628,-0.3865 0.27609,-0.2753 0.41413,-0.6071 0.41413,-0.9938 l 0,-2.7609 c 0,-0.3867 -0.13809,-0.7084 -0.41413,-0.9664 -0.25768,-0.2753 -0.57978,-0.4141 -0.96628,-0.4141 -0.38655,0 -0.71783,0.1376 -0.99391,0.4141 -0.25768,0.2574 -0.38653,0.5797 -0.38651,0.9664 l 0,1.3803 -2.76084,0 0,-1.3803 c -2e-5,-1.1412 0.40493,-2.1165 1.21477,-2.92639"
       style="font-size:154px;font-style:normal;font-variant:normal;font-weight:500;font-stretch:normal;text-align:start;line-height:81.99999928%;letter-spacing:-0.75px;word-spacing:0px;writing-mode:lr-tb;text-anchor:start;fill:#999999;fill-opacity:1;stroke:none;display:inline;font-family:DIN_OSP;-inkscape-font-specification:DIN_OSP Medium"
       id="path4918-9"
       inkscape:connector-curvature="0" />
    <g
       transform="matrix(0.73437919,0,0,0.73437919,-285.82711,-389.36981)"
       id="text4945-8"
       style="font-size:35.57035446px;font-style:normal;font-variant:normal;font-weight:500;font-stretch:normal;text-align:start;line-height:125%;letter-spacing:0px;word-spacing:0px;writing-mode:lr-tb;text-anchor:start;fill:#00a651;fill-opacity:1;stroke:none;display:inline;font-family:DIN_OSP;-inkscape-font-specification:DIN_OSP Medium">
      <path
         inkscape:connector-curvature="0"
         id="path3094-8"
         d="m 499.84446,1916.3948 0,24.8993 3.55704,0 0,-10.6711 5.33555,0 0,-3.5571 -5.33555,0 0,-7.114 7.11407,0 0,-3.5571 -10.67111,0"
         style="fill:#00a651;fill-opacity:1" />
      <path
         inkscape:connector-curvature="0"
         id="path3096-1"
         d="m 512.83598,1916.3948 3.55703,0 0,19.5637 c 0,0.498 0.16599,0.9248 0.49799,1.2805 0.3557,0.332 0.78254,0.498 1.28053,0.498 0.49798,0 0.91297,-0.166 1.24496,-0.498 0.3557,-0.3557 0.53355,-0.7825 0.53356,-1.2805 l 0,-19.5637 3.55703,0 0,19.5637 c -10e-6,1.4703 -0.52171,2.7271 -1.56509,3.7705 -1.04341,1.0434 -2.30023,1.5651 -3.77046,1.5651 -1.47025,0 -2.72706,-0.5217 -3.77046,-1.5651 -1.0434,-1.0434 -1.56509,-2.3002 -1.56509,-3.7705 l 0,-19.5637"
         style="fill:#00a651;fill-opacity:1" />
      <path
         inkscape:connector-curvature="0"
         id="path3098-8"
         d="m 525.12498,1916.3948 10.6711,0 0,3.5571 -3.55703,0 0,21.3422 -3.55704,0 0,-21.3422 -3.55703,0 0,-3.5571"
         style="fill:#00a651;fill-opacity:1" />
      <path
         inkscape:connector-curvature="0"
         id="path3100-0"
         d="m 537.42954,1916.3948 3.55704,0 0,19.5637 c 0,0.498 0.16599,0.9248 0.49799,1.2805 0.35569,0.332 0.78254,0.498 1.28053,0.498 0.49798,0 0.91296,-0.166 1.24496,-0.498 0.3557,-0.3557 0.53355,-0.7825 0.53356,-1.2805 l 0,-19.5637 3.55703,0 0,19.5637 c -10e-6,1.4703 -0.52171,2.7271 -1.56509,3.7705 -1.04341,1.0434 -2.30023,1.5651 -3.77046,1.5651 -1.47025,0 -2.72707,-0.5217 -3.77046,-1.5651 -1.0434,-1.0434 -1.5651,-2.3002 -1.5651,-3.7705 l 0,-19.5637"
         style="fill:#00a651;fill-opacity:1" />
      <path
         inkscape:connector-curvature="0"
         id="path3102-5"
         d="m 551.53263,1916.4304 7.11407,0.036 c 0.97225,0 1.80222,0.3438 2.48993,1.0315 0.68768,0.6877 1.03153,1.5177 1.03154,2.4899 l 0,7.1141 c -1e-5,1.3517 -0.58099,2.3714 -1.74295,3.059 l 0,0 1.74295,11.1336 -3.52147,0 -1.77851,-10.6711 -1.81409,0 0,10.6711 -3.52147,0 0,-24.8637 m 3.52147,3.5215 0,7.1852 2.24093,0 c 0.37941,0 0.69954,-0.1304 0.9604,-0.3913 0.26084,-0.2846 0.39127,-0.6047 0.39127,-0.9604 l 0,-4.4463 c 0,-0.3794 -0.13043,-0.6995 -0.39127,-0.9604 -0.26086,-0.2845 -0.58099,-0.4268 -0.9604,-0.4268 l -2.24093,0"
         style="fill:#00a651;fill-opacity:1" />
      <path
         inkscape:connector-curvature="0"
         id="path3104-0"
         d="m 565.21888,1941.2941 0,-24.8993 10.67111,0 0,3.5571 -7.11407,0 0,7.114 5.33555,0 0,3.5571 -5.33555,0 0,7.114 7.11407,0 0,3.5571 -10.67111,0"
         style="fill:#00a651;fill-opacity:1" />
      <path
         inkscape:connector-curvature="0"
         id="path3106-6"
         d="m 582.99628,1916.3948 10.6711,0 0,3.5571 -3.55703,0 0,21.3422 -3.55704,0 0,-21.3422 -3.55703,0 0,-3.5571"
         style="fill:#00a651;fill-opacity:1" />
      <path
         inkscape:connector-curvature="0"
         id="path3108-6"
         d="m 596.23567,1917.9599 c 1.04339,-1.0434 2.30021,-1.5651 3.77046,-1.5651 1.47023,0 2.72705,0.5217 3.77046,1.5651 1.04338,1.0434 1.56508,2.3003 1.56509,3.7705 l 0,14.2281 c -10e-6,1.4703 -0.52171,2.7271 -1.56509,3.7705 -1.04341,1.0434 -2.30023,1.5651 -3.77046,1.5651 -1.47025,0 -2.72707,-0.5217 -3.77046,-1.5651 -1.0434,-1.0434 -1.5651,-2.3002 -1.56509,-3.7705 l 0,-14.2281 c -10e-6,-1.4702 0.52169,-2.7271 1.56509,-3.7705 m 5.01542,2.5255 c -0.332,-0.3557 -0.74698,-0.5335 -1.24496,-0.5335 -0.49799,0 -0.92484,0.1778 -1.28053,0.5335 -0.332,0.332 -0.49799,0.747 -0.49799,1.245 l 0,5.051 0,4.1617 0,5.0154 c 0,0.498 0.16599,0.9248 0.49799,1.2805 0.35569,0.332 0.78254,0.498 1.28053,0.498 0.49798,0 0.91296,-0.166 1.24496,-0.498 0.3557,-0.3557 0.53355,-0.7825 0.53356,-1.2805 l 0,-5.0154 0,-4.1617 0,-5.051 c -1e-5,-0.498 -0.17786,-0.913 -0.53356,-1.245"
         style="fill:#00a651;fill-opacity:1" />
      <path
         inkscape:connector-curvature="0"
         id="path3110-9"
         d="m 609.92193,1917.9599 c 1.04339,-1.0434 2.30021,-1.5651 3.77045,-1.5651 1.47024,0 2.72706,0.5217 3.77046,1.5651 1.04339,1.0434 1.56509,2.3003 1.5651,3.7705 l 0,14.2281 c -10e-6,1.4703 -0.52171,2.7271 -1.5651,3.7705 -1.0434,1.0434 -2.30022,1.5651 -3.77046,1.5651 -1.47024,0 -2.72706,-0.5217 -3.77045,-1.5651 -1.0434,-1.0434 -1.5651,-2.3002 -1.5651,-3.7705 l 0,-14.2281 c 0,-1.4702 0.5217,-2.7271 1.5651,-3.7705 m 5.01542,2.5255 c -0.332,-0.3557 -0.74699,-0.5335 -1.24497,-0.5335 -0.49799,0 -0.92483,0.1778 -1.28053,0.5335 -0.33199,0.332 -0.49799,0.747 -0.49798,1.245 l 0,5.051 0,4.1617 0,5.0154 c -10e-6,0.498 0.16599,0.9248 0.49798,1.2805 0.3557,0.332 0.78254,0.498 1.28053,0.498 0.49798,0 0.91297,-0.166 1.24497,-0.498 0.35569,-0.3557 0.53354,-0.7825 0.53355,-1.2805 l 0,-5.0154 0,-4.1617 0,-5.051 c -10e-6,-0.498 -0.17786,-0.913 -0.53355,-1.245"
         style="fill:#00a651;fill-opacity:1" />
      <path
         inkscape:connector-curvature="0"
         id="path3112-3"
         d="m 622.2565,1941.2941 0,-24.8993 3.55704,0 0,21.3422 7.11407,0 0,3.5571 -10.67111,0"
         style="fill:#00a651;fill-opacity:1" />
      <path
         inkscape:connector-curvature="0"
         id="path3114-5"
         d="m 634.5366,1934.18 0,1.7785 c 0,1.4703 0.5217,2.7271 1.5651,3.7705 1.04339,1.0434 2.30021,1.5651 3.77046,1.5651 1.47023,0 2.72705,-0.5217 3.77045,-1.5651 1.04339,-1.0434 1.56509,-2.3002 1.5651,-3.7705 l 0,-3.557 c -10e-6,-1.3517 -0.45057,-2.5374 -1.35167,-3.5571 -1.06712,-1.1856 -2.39508,-1.7785 -3.98388,-1.7785 -0.49799,0 -0.92484,-0.166 -1.28054,-0.498 -0.33199,-0.3556 -0.49799,-0.7825 -0.49798,-1.2805 l 0,-3.557 c -1e-5,-0.498 0.16599,-0.913 0.49798,-1.245 0.3557,-0.3557 0.78255,-0.5335 1.28054,-0.5335 0.49798,0 0.91296,0.1778 1.24496,0.5335 0.3557,0.332 0.53355,0.747 0.53355,1.245 l 0,1.7785 3.23691,0 0.32013,0 0,-1.7785 c -10e-6,-1.4702 -0.52171,-2.7271 -1.5651,-3.7705 -1.0434,-1.0434 -2.30022,-1.5651 -3.77045,-1.5651 -1.47025,0 -2.72707,0.5217 -3.77046,1.5651 -1.0434,1.0434 -1.5651,2.3003 -1.5651,3.7705 l 0,3.557 c 0,1.3517 0.45056,2.5374 1.35168,3.557 1.0671,1.1857 2.39506,1.7786 3.98388,1.7786 0.49798,0 0.91296,0.1778 1.24496,0.5335 0.3557,0.332 0.53355,0.747 0.53355,1.245 l 0,3.557 c 0,0.498 -0.17785,0.9248 -0.53355,1.2805 -0.332,0.332 -0.74698,0.498 -1.24496,0.498 -0.49799,0 -0.92484,-0.166 -1.28054,-0.498 -0.33199,-0.3557 -0.49799,-0.7825 -0.49798,-1.2805 l 0,-1.7785 -3.55704,0"
         style="fill:#00a651;fill-opacity:1" />
    </g>
  </g>
  <g
     inkscape:groupmode="layer"
     id="layer1"
     inkscape:label="referenz"
     sodipodi:insensitive="true"
     style="display:none">
    <path
       id="rect3072"
       d="M 0,0 192,0 192,157 0,157 0,0 z"
       style="opacity:0.1;color:#000000;fill:#cccccc;fill-opacity:1;fill-rule:nonzero;stroke:none;stroke-width:8;marker:none;visibility:visible;display:inline;overflow:visible;enable-background:accumulate" />
    <path
       id="path3447"
       d="m 17.5,31 -18.5,0 0,-16 0,-16 36.5,0 36.5,0 0,8 0,8 -18,0 -18,0 0,8 0,8 -18.5,0 z"
       style="fill:#a3a3a3;fill-opacity:1;display:inline" />
    <path
       id="path3445"
       d="m 174.5,31 -18.5,0 0,-8 0,-8 -18,0 -18,0 0,-8 0,-8 36.5,0 36.5,0 0,16 0,16 -18.5,0 z"
       style="fill:#a3a3a3;fill-opacity:1;display:inline" />
  </g>
</svg>
